<svg preserveAspectRatio="none" id="visual" viewBox="0 0 1080 920" width="1080" height="920" xmlns="http://www.w3.org/2000/svg" xmlns:xlink="http://www.w3.org/1999/xlink" version="1.1">
    <rect x="0" y="0" width="1080" height="920" fill="#fff"></rect>
    <g transform="translate(59.00710691740079 123.68492660068219)">
        <path d="M213.4 -331.7C265.7 -298.5 289.8 -220.9 278.7 -154C267.6 -87.1 221.4 -31 207 25.8C192.6 82.5 210.1 139.8 188.7 162.5C167.4 185.1 107.4 173.2 69.5 140.3C31.6 107.5 15.8 53.7 -23.5 54C-62.7 54.4 -125.5 108.7 -136.3 110.3C-147.2 111.8 -106.3 60.6 -155.7 -3.5C-205.2 -67.5 -345 -144.5 -385.9 -226.7C-426.8 -308.9 -368.9 -396.3 -288.1 -416.5C-207.2 -436.8 -103.6 -389.9 -11.5 -372C80.6 -354 161.1 -365 213.4 -331.7" fill="#3d7aed">
        </path>
    </g>
</svg>