<svg preserveAspectRatio="none" id="visual" viewBox="0 0 900 600" width="1080" height="920" xmlns="http://www.w3.org/2000/svg" xmlns:xlink="http://www.w3.org/1999/xlink" version="1.1">
    <rect x="0" y="0" width="1080" height="920" fill="#121212"></rect>
    <path d="M0 390L21.5 394.3C43 398.7 86 407.3 128.8 412.2C171.7 417 214.3 418 257.2 421.8C300 425.7 343 432.3 385.8 424.3C428.7 416.3 471.3 393.7 514.2 378.7C557 363.7 600 356.3 642.8 369.7C685.7 383 728.3 417 771.2 433.3C814 449.7 857 448.3 878.5 447.7L900 447L900 601L878.5 601C857 601 814 601 771.2 601C728.3 601 685.7 601 642.8 601C600 601 557 601 514.2 601C471.3 601 428.7 601 385.8 601C343 601 300 601 257.2 601C214.3 601 171.7 601 128.8 601C86 601 43 601 21.5 601L0 601Z" fill="#252526"></path>
    <path d="M0 478L21.5 467.7C43 457.3 86 436.7 128.8 427.8C171.7 419 214.3 422 257.2 421.7C300 421.3 343 417.7 385.8 426.3C428.7 435 471.3 456 514.2 463.7C557 471.3 600 465.7 642.8 451.7C685.7 437.7 728.3 415.3 771.2 413C814 410.7 857 428.3 878.5 437.2L900 446L900 601L878.5 601C857 601 814 601 771.2 601C728.3 601 685.7 601 642.8 601C600 601 557 601 514.2 601C471.3 601 428.7 601 385.8 601C343 601 300 601 257.2 601C214.3 601 171.7 601 128.8 601C86 601 43 601 21.5 601L0 601Z" fill="#212122"></path>
    <path d="M0 444L21.5 440.3C43 436.7 86 429.3 128.8 434C171.7 438.7 214.3 455.3 257.2 463C300 470.7 343 469.3 385.8 462C428.7 454.7 471.3 441.3 514.2 443C557 444.7 600 461.3 642.8 471.8C685.7 482.3 728.3 486.7 771.2 490.2C814 493.7 857 496.3 878.5 497.7L900 499L900 601L878.5 601C857 601 814 601 771.2 601C728.3 601 685.7 601 642.8 601C600 601 557 601 514.2 601C471.3 601 428.7 601 385.8 601C343 601 300 601 257.2 601C214.3 601 171.7 601 128.8 601C86 601 43 601 21.5 601L0 601Z" fill="#1e1e1e"></path>
    <path d="M0 518L21.5 516.8C43 515.7 86 513.3 128.8 507C171.7 500.7 214.3 490.3 257.2 488.7C300 487 343 494 385.8 501.3C428.7 508.7 471.3 516.3 514.2 510.7C557 505 600 486 642.8 480.3C685.7 474.7 728.3 482.3 771.2 489.3C814 496.3 857 502.7 878.5 505.8L900 509L900 601L878.5 601C857 601 814 601 771.2 601C728.3 601 685.7 601 642.8 601C600 601 557 601 514.2 601C471.3 601 428.7 601 385.8 601C343 601 300 601 257.2 601C214.3 601 171.7 601 128.8 601C86 601 43 601 21.5 601L0 601Z" fill="#1a1a1a"></path>
    <path d="M0 552L21.5 551.7C43 551.3 86 550.7 128.8 549.2C171.7 547.7 214.3 545.3 257.2 541.2C300 537 343 531 385.8 527.8C428.7 524.7 471.3 524.3 514.2 527.5C557 530.7 600 537.3 642.8 536.3C685.7 535.3 728.3 526.7 771.2 526C814 525.3 857 532.7 878.5 536.3L900 540L900 601L878.5 601C857 601 814 601 771.2 601C728.3 601 685.7 601 642.8 601C600 601 557 601 514.2 601C471.3 601 428.7 601 385.8 601C343 601 300 601 257.2 601C214.3 601 171.7 601 128.8 601C86 601 43 601 21.5 601L0 601Z" fill="#161616"></path>
    <path d="M0 577L21.5 571.2C43 565.3 86 553.7 128.8 552.7C171.7 551.7 214.3 561.3 257.2 567.8C300 574.3 343 577.7 385.8 577.5C428.7 577.3 471.3 573.7 514.2 573C557 572.3 600 574.7 642.8 574.2C685.7 573.7 728.3 570.3 771.2 568.8C814 567.3 857 567.7 878.5 567.8L900 568L900 601L878.5 601C857 601 814 601 771.2 601C728.3 601 685.7 601 642.8 601C600 601 557 601 514.2 601C471.3 601 428.7 601 385.8 601C343 601 300 601 257.2 601C214.3 601 171.7 601 128.8 601C86 601 43 601 21.5 601L0 601Z" fill="#121212"></path>
</svg>