<svg preserveAspectRatio="none" id="visual" viewBox="0 0 1080 920" width="1080" height="920" xmlns="http://www.w3.org/2000/svg" xmlns:xlink="http://www.w3.org/1999/xlink" version="1.1">
    <rect x="0" y="0" width="1080" height="920" fill="#1976D2"></rect>
    <path d="M0 659L20 658.3C40 657.7 80 656.3 120 648.5C160 640.7 200 626.3 240 618.5C280 610.7 320 609.3 360 612.3C400 615.3 440 622.7 480 624.3C520 626 560 622 600 624C640 626 680 634 720 632.2C760 630.3 800 618.7 840 625.5C880 632.3 920 657.7 960 675.5C1000 693.3 1040 703.7 1060 708.8L1080 714L1080 921L1060 921C1040 921 1000 921 960 921C920 921 880 921 840 921C800 921 760 921 720 921C680 921 640 921 600 921C560 921 520 921 480 921C440 921 400 921 360 921C320 921 280 921 240 921C200 921 160 921 120 921C80 921 40 921 20 921L0 921Z" fill="#2196f3"></path>
    <path d="M0 710L20 716.7C40 723.3 80 736.7 120 746.7C160 756.7 200 763.3 240 771.5C280 779.7 320 789.3 360 785.5C400 781.7 440 764.3 480 749.2C520 734 560 721 600 711.2C640 701.3 680 694.7 720 696.3C760 698 800 708 840 723.2C880 738.3 920 758.7 960 764C1000 769.3 1040 759.7 1060 754.8L1080 750L1080 921L1060 921C1040 921 1000 921 960 921C920 921 880 921 840 921C800 921 760 921 720 921C680 921 640 921 600 921C560 921 520 921 480 921C440 921 400 921 360 921C320 921 280 921 240 921C200 921 160 921 120 921C80 921 40 921 20 921L0 921Z" fill="#89b8f8"></path>
    <path d="M0 836L20 825.7C40 815.3 80 794.7 120 791.5C160 788.3 200 802.7 240 800.2C280 797.7 320 778.3 360 771.8C400 765.3 440 771.7 480 777C520 782.3 560 786.7 600 793C640 799.3 680 807.7 720 801.2C760 794.7 800 773.3 840 762.7C880 752 920 752 960 753C1000 754 1040 756 1060 757L1080 758L1080 921L1060 921C1040 921 1000 921 960 921C920 921 880 921 840 921C800 921 760 921 720 921C680 921 640 921 600 921C560 921 520 921 480 921C440 921 400 921 360 921C320 921 280 921 240 921C200 921 160 921 120 921C80 921 40 921 20 921L0 921Z" fill="#c8dbfc"></path>
    <path d="M0 862L20 855.3C40 848.7 80 835.3 120 836C160 836.7 200 851.3 240 859.2C280 867 320 868 360 869.2C400 870.3 440 871.7 480 860.8C520 850 560 827 600 816.2C640 805.3 680 806.7 720 811.7C760 816.7 800 825.3 840 834.7C880 844 920 854 960 849.8C1000 845.7 1040 827.3 1060 818.2L1080 809L1080 921L1060 921C1040 921 1000 921 960 921C920 921 880 921 840 921C800 921 760 921 720 921C680 921 640 921 600 921C560 921 520 921 480 921C440 921 400 921 360 921C320 921 280 921 240 921C200 921 160 921 120 921C80 921 40 921 20 921L0 921Z" fill="#ffffff"></path>
</svg>